name GIL01_xslow2Moments.mot
datacolumns 7
datarows 54
range 0.30833328 0.74999994
endheader

                time	          RHipMoment	          LHipMoment	         RKneeMoment	         LKneeMoment	        RAnkleMoment	        LAnkleMoment	
          0.30833328	         87.36539459	         85.91521454	        -67.23670197	       -256.50393677	         -9.70539570	        -41.92387772	
          0.31666663	         78.76639557	         77.64269257	        -58.09370041	       -262.28994751	         -9.98933506	        -53.18534470	
          0.32499996	         65.29589844	         63.68162537	        -46.93514633	       -269.63107300	        -10.67895794	        -60.57412338	
          0.33333328	         32.75121307	         50.59989166	        -33.40320206	       -274.41317749	        -12.48048401	        -65.79182434	
          0.34166661	        -15.72070122	         44.34131622	        -20.03407860	       -279.81539917	        -15.21426105	        -68.27357483	
          0.34999996	        -75.02716827	         32.03342438	         -8.43334007	       -284.19274902	        -18.24971581	        -67.87397003	
          0.35833329	       -104.79177856	         27.10169029	         -0.99055117	       -290.52062988	        -20.44580078	        -64.17192841	
          0.36666662	       -108.41345978	         29.69536972	          4.27069521	       -298.37780762	        -21.66675568	        -55.80975342	
          0.37499994	       -107.98532104	         24.28530693	          7.99993324	       -303.80349731	        -21.61013603	        -45.27413940	
          0.38333330	       -100.73879242	         12.37359524	          8.41982555	       -308.66421509	        -20.07027435	        -32.91072845	
          0.39166662	        -86.52877045	          0.49968329	          5.84268093	       -316.79980469	        -16.89579582	        -19.37924957	
          0.39999995	        -74.06504059	         -8.21828938	          3.28881836	       -324.96966553	        -13.23724365	         -2.64908576	
          0.40833330	        -61.28966522	         -3.28876114	          1.10194719	       -334.95376587	        -10.00138187	         19.12166405	
          0.41666663	        -50.88026810	          7.14255381	         -2.58991957	       -346.11303711	         -7.85948563	         44.48373795	
          0.42499995	        -41.55716324	         10.25323296	         -8.84274578	       -355.94369507	         -6.56819630	         72.19833374	
          0.43333328	        -27.17254639	         11.25681782	        -13.38280296	       -364.37585449	         -6.01031733	        100.85935211	
          0.44166660	        -26.15608215	         21.11611176	        -13.45361328	       -375.40542603	         -6.01168156	        129.56428528	
          0.44999996	        -69.71810913	         22.41174316	        -12.34745693	       -388.21319580	         -6.25262785	        158.00213623	
          0.45833328	       -140.27980042	         -2.12484956	        -13.20639610	       -396.61175537	         -6.45556259	        185.61784363	
          0.46666664	       -150.64154053	          1.96552634	        -11.32851791	       -408.36691284	         -6.46784306	        213.32951355	
          0.47499996	       -144.96420288	          6.35823965	         -7.46952581	       -417.05633545	         -6.23694754	        239.93588257	
          0.48333329	       -127.37972260	         25.66122818	         -5.01878023	       -427.58911133	         -5.94036627	        265.28979492	
          0.49166662	        -95.54757690	         48.03375244	         -8.26256084	       -439.42019653	         -5.93050909	        290.05538940	
          0.49999994	        -54.23561096	         55.08194733	        -13.66744900	       -446.11419678	         -6.15675354	        313.09170532	
          0.50833327	        -15.48310184	         60.51467896	        -17.71873093	       -451.27111816	         -6.44871950	        335.15997314	
          0.51666665	        -17.11850739	         62.74135208	        -20.94540024	       -457.56167603	         -6.93241215	        355.99255371	
          0.52499998	        -64.96327209	         44.38659286	        -25.18430901	       -461.10494995	         -7.61697149	        374.64706421	
          0.53333330	        -96.33084869	         36.21239853	        -28.47432518	       -464.15286255	         -8.31923294	        391.04040527	
          0.54166663	        -98.88992310	         38.63637543	        -28.91077042	       -465.93157959	         -8.99439526	        405.49539185	
          0.54999995	       -114.16490936	         30.10740662	        -25.67475891	       -463.57507324	         -9.59464836	        417.52792358	
          0.55833328	       -109.15740204	         33.47312164	        -23.55467033	       -461.49676514	        -10.11552238	        425.96151733	
          0.56666660	       -115.25508118	         21.10783005	        -25.62242508	       -455.17346191	        -10.51679134	        431.27716064	
          0.57499993	       -130.61825562	          2.99992681	        -26.08445740	       -447.00726318	        -10.54741478	        434.35818481	
          0.58333325	       -159.17837524	        -21.92957306	        -16.71290207	       -435.88116455	        -10.62288952	        435.94952393	
          0.59166658	       -153.49052429	        -17.71802902	         -6.27077246	       -429.16052246	        -11.24026585	        436.62976074	
          0.59999996	       -115.50102234	        -20.08290672	        -15.82890511	       -420.91482544	        -10.91258621	        437.49996948	
          0.60833329	        -84.61894989	        -29.14146423	        -24.81316185	       -410.20046997	        -10.24743462	        437.82922363	
          0.61666662	        -54.78744125	        -51.24702454	        -34.20523453	       -395.90969849	        -10.09779263	        437.69879150	
          0.62499994	        -73.53153229	        -70.07963562	        -23.31088066	       -383.39334106	        -10.95108223	        437.88751221	
          0.63333333	        -12.81355476	        -79.89704132	        -44.37886810	       -369.20614624	        -12.20343494	        437.67944336	
          0.64166665	         -3.71180201	        -97.05701447	        -52.94269943	       -352.15917969	        -12.92496109	        437.56494141	
          0.64999998	        -27.20668411	       -125.72007751	        -51.34001160	       -332.20086670	        -12.99264526	        438.77539063	
          0.65833330	        -64.43335724	       -130.94300842	        -29.11742592	       -316.57720947	        -13.70582390	        442.50460815	
          0.66666663	        -35.64482498	       -137.91731262	        -33.12344742	       -299.77813721	        -13.91126919	        448.48519897	
          0.67499995	        -34.19439316	       -157.47232056	        -35.08824539	       -284.14248657	        -12.81617546	        457.18017578	
          0.68333328	        -11.44125462	       -176.24288940	        -45.75255966	       -271.83724976	        -11.53250122	        468.90518188	
          0.69166660	        -46.50640106	       -187.12435913	        -30.65663147	       -264.59906006	        -10.62985229	        482.86203003	
          0.69999993	        -28.25801277	       -194.22386169	        -37.07104874	       -256.85076904	        -10.39624023	        499.18350220	
          0.70833325	         14.14786434	       -200.50428772	        -50.72856522	       -245.98574829	        -10.07656479	        518.74371338	
          0.71666658	          7.43709230	       -226.42481995	        -54.23736572	       -231.49125671	         -9.28539562	        540.82684326	
          0.72499996	         -4.75669527	       -247.91050720	        -57.39909363	       -219.70588684	         -8.58623981	        565.16510010	
          0.73333329	         27.30805016	       -245.21374512	        -65.79933929	       -210.96453857	         -8.00038624	        592.22515869	
          0.74166662	         57.44388199	       -252.91006470	        -74.34508514	       -198.67599487	         -7.23015404	        622.56671143	
          0.74999994	         55.92248154	       -285.92776489	        -79.93730927	       -185.06904602	         -6.28029680	        654.78045654	
